<?xml version="1.0" standalone="no"?>
<!DOCTYPE svg PUBLIC "-//W3C//DTD SVG 20010904//EN"
 "http://www.w3.org/TR/2001/REC-SVG-20010904/DTD/svg10.dtd">
<svg version="1.0" xmlns="http://www.w3.org/2000/svg"
 width="1095.000000pt" height="765.000000pt" viewBox="0 0 1095.000000 765.000000"
 preserveAspectRatio="xMidYMid meet">

<g transform="translate(0.000000,765.000000) scale(0.100000,-0.100000)"
fill="#000000" stroke="none">
<path d="M210 3185 l0 -2305 534 0 534 0 45 50 c82 91 77 27 77 1074 0 915 0
930 -20 972 -30 60 -132 177 -238 269 l-92 80 48 39 c90 75 240 234 271 287
l31 54 0 750 c0 723 -1 753 -20 824 -26 92 -62 163 -96 190 -26 21 -34 21
-550 21 l-524 0 0 -2305z m491 1858 c-17 -21 -71 -81 -121 -133 l-89 -95 -1
133 0 132 121 0 121 0 -31 -37z m348 0 c-20 -21 -136 -148 -259 -283 -123
-135 -240 -263 -262 -285 l-38 -40 0 95 0 95 208 227 207 227 90 0 89 1 -35
-37z m61 -250 l-1 -128 -256 -280 c-140 -154 -280 -307 -309 -340 l-54 -60 0
131 0 130 308 337 c169 185 308 336 310 337 1 0 2 -57 2 -127z m0 -425 l0
-113 -273 -315 c-149 -174 -289 -336 -310 -360 l-37 -44 0 132 0 131 308 340
c169 187 308 340 310 340 1 1 2 -50 2 -111z m-34 -602 c-19 -22 -74 -83 -123
-134 l-88 -93 -101 3 -101 3 221 256 221 255 3 -124 3 -124 -35 -42z m-196
-674 c0 -4 52 -64 115 -132 l114 -125 1 -772 0 -773 -310 0 -310 0 0 905 0
905 195 0 c107 0 195 -4 195 -8z"/>
<path d="M1810 3185 l0 -2305 425 0 425 0 0 205 0 205 -285 0 -285 0 0 895 0
895 270 0 270 0 0 210 0 210 -270 0 -270 0 0 790 0 790 285 0 285 0 0 205 0
205 -425 0 -425 0 0 -2305z"/>
<path d="M3155 5479 c-42 -24 -76 -65 -97 -118 l-23 -56 -3 -712 -3 -712 37
-97 c51 -137 170 -389 349 -739 84 -165 189 -377 234 -472 l81 -172 0 -556 0
-555 -205 0 -205 0 0 695 0 695 -145 0 -145 0 2 -812 3 -813 23 -57 c13 -31
36 -71 52 -88 l28 -30 380 0 379 0 26 24 c31 29 48 61 76 147 21 65 21 71 19
790 l-3 724 -50 115 c-66 151 -304 632 -493 996 l-152 292 0 556 0 556 205 0
205 0 0 -535 0 -535 145 0 145 0 0 613 c0 645 -2 677 -47 763 -11 22 -39 53
-62 69 l-43 30 -346 2 c-243 2 -353 -1 -367 -8z"/>
<path d="M4380 5285 l0 -205 215 0 215 0 0 -2100 0 -2100 145 0 145 0 0 2100
0 2100 215 0 215 0 0 205 0 205 -575 0 -575 0 0 -205z"/>
<path d="M5972 5470 c-20 -13 -42 -39 -55 -68 l-22 -47 0 -2135 0 -2135 23
-56 c12 -32 41 -78 63 -103 l41 -46 460 0 c320 0 466 3 481 11 42 22 77 63 99
118 l23 56 3 2107 2 2107 -21 56 c-23 63 -67 118 -110 141 -23 12 -106 14
-491 14 -447 0 -464 -1 -496 -20z m828 -2285 l0 -1895 -310 0 -310 0 0 1895 0
1895 310 0 310 0 0 -1895z"/>
<path d="M9660 3185 l0 -2305 371 0 c412 0 405 -1 472 68 55 57 142 203 176
296 65 181 62 75 58 1976 -3 1558 -5 1731 -19 1790 -43 171 -118 316 -213 417
l-60 63 -393 0 -392 0 0 -2305z m662 1878 c25 -29 76 -124 100 -189 l23 -59 3
-1634 c1 -1078 -1 -1653 -8 -1690 -15 -81 -46 -138 -93 -169 -40 -26 -44 -27
-224 -30 l-183 -4 0 1896 0 1896 183 0 c163 0 186 -2 199 -17z"/>
<path d="M8296 5459 c-33 -26 -67 -91 -95 -183 -20 -66 -21 -87 -21 -597 l0
-529 120 0 120 0 0 485 0 485 310 0 310 0 0 -570 c0 -554 -1 -572 -20 -611
-11 -21 -97 -140 -190 -264 -93 -124 -179 -243 -190 -264 -14 -29 -20 -60 -20
-108 0 -61 4 -75 36 -129 19 -33 108 -150 196 -260 88 -109 171 -217 184 -240
l24 -41 0 -681 0 -682 -320 0 -320 0 0 525 0 525 -120 0 -120 0 0 -620 0 -620
25 -67 c14 -37 37 -82 51 -100 l25 -33 449 0 449 0 25 33 c14 18 38 64 53 103
l28 69 3 856 3 857 -60 88 c-32 49 -118 162 -189 251 l-131 163 90 102 c111
127 187 225 233 302 l36 60 0 773 c0 757 0 773 -21 828 -11 30 -32 69 -46 85
l-25 30 -428 0 c-419 0 -428 0 -454 -21z"/>
</g>
</svg>
